HIERARCHY
ROOT Hips
{
	OFFSET 0.00000 0.00000 0.00000
	CHANNELS 6 Xposition Yposition Zposition Zrotation Yrotation Xrotation 
	JOINT LHipJoint
	{
		OFFSET 0 0 0
		CHANNELS 3 Zrotation Yrotation Xrotation
		JOINT LeftUpLeg
		{
			OFFSET 1.74857 -1.85566 0.69197
			CHANNELS 3 Zrotation Yrotation Xrotation
			JOINT LeftLeg
			{
				OFFSET 2.40003 -6.59403 0.00000
				CHANNELS 3 Zrotation Yrotation Xrotation
				JOINT LeftFoot
				{
					OFFSET 2.82169 -7.75254 0.00000
					CHANNELS 3 Zrotation Yrotation Xrotation
					JOINT LeftToeBase
					{
						OFFSET 0.16466 -0.45240 2.26890
						CHANNELS 3 Zrotation Yrotation Xrotation
						End Site
						{
							OFFSET 0.00000 -0.00000 1.16486
						}
					}
				}
			}
		}
	}
	JOINT RHipJoint
	{
		OFFSET 0 0 0
		CHANNELS 3 Zrotation Yrotation Xrotation
		JOINT RightUpLeg
		{
			OFFSET -1.64169 -1.85566 0.69197
			CHANNELS 3 Zrotation Yrotation Xrotation
			JOINT RightLeg
			{
				OFFSET -2.41814 -6.64379 0.00000
				CHANNELS 3 Zrotation Yrotation Xrotation
				JOINT RightFoot
				{
					OFFSET -2.80588 -7.70911 0.00000
					CHANNELS 3 Zrotation Yrotation Xrotation
					JOINT RightToeBase
					{
						OFFSET -0.19098 -0.52472 2.25401
						CHANNELS 3 Zrotation Yrotation Xrotation
						End Site
						{
							OFFSET -0.00000 -0.00000 1.16333
						}
					}
				}
			}
		}
	}
	JOINT LowerBack
	{
		OFFSET 0 0 0
		CHANNELS 3 Zrotation Yrotation Xrotation
		JOINT Spine
		{
			OFFSET -0.02828 2.14690 -0.11061
			CHANNELS 3 Zrotation Yrotation Xrotation
			JOINT Spine1
			{
				OFFSET -0.00167 2.15299 0.00759
				CHANNELS 3 Zrotation Yrotation Xrotation
				JOINT Neck
				{
					OFFSET 0 0 0
					CHANNELS 3 Zrotation Yrotation Xrotation
					JOINT Neck1
					{
						OFFSET -0.09296 1.90118 0.07197
						CHANNELS 3 Zrotation Yrotation Xrotation
						JOINT Head
						{
							OFFSET 0.08490 1.89526 -0.24604
							CHANNELS 3 Zrotation Yrotation Xrotation
							End Site
							{
								OFFSET 0.03186 1.92109 -0.09483
							}
						}
					}
				}
				JOINT LeftShoulder
				{
					OFFSET 0 0 0
					CHANNELS 3 Zrotation Yrotation Xrotation
					JOINT LeftArm
					{
						OFFSET 3.21569 1.44644 -0.03720
						CHANNELS 3 Zrotation Yrotation Xrotation
						JOINT LeftForeArm
						{
							OFFSET 5.47651 -0.00000 -0.00000
							CHANNELS 3 Zrotation Yrotation Xrotation
							JOINT LeftHand
							{
								OFFSET 3.09058 -0.00000 -0.00000
								CHANNELS 3 Zrotation Yrotation Xrotation
								JOINT LeftFingerBase
								{
									OFFSET 0 0 0
									CHANNELS 3 Zrotation Yrotation Xrotation
									JOINT LeftHandIndex1
									{
										OFFSET 0.77161 -0.00000 -0.00000
										CHANNELS 3 Zrotation Yrotation Xrotation
										End Site
										{
											OFFSET 0.62209 -0.00000 -0.00000
										}
									}
								}
								JOINT LThumb
								{
									OFFSET 0 0 0
									CHANNELS 3 Zrotation Yrotation Xrotation
									End Site
									{
										OFFSET 0.63159 -0.00000 0.63159
									}
								}
							}
						}
					}
				}
				JOINT RightShoulder
				{
					OFFSET 0 0 0
					CHANNELS 3 Zrotation Yrotation Xrotation
					JOINT RightArm
					{
						OFFSET -3.38693 1.28904 -0.07093
						CHANNELS 3 Zrotation Yrotation Xrotation
						JOINT RightForeArm
						{
							OFFSET -5.14182 -0.00000 -0.00000
							CHANNELS 3 Zrotation Yrotation Xrotation
							JOINT RightHand
							{
								OFFSET -3.35565 -0.00000 -0.00000
								CHANNELS 3 Zrotation Yrotation Xrotation
								JOINT RightFingerBase
								{
									OFFSET 0 0 0
									CHANNELS 3 Zrotation Yrotation Xrotation
									JOINT RightHandIndex1
									{
										OFFSET -0.80104 -0.00000 -0.00000
										CHANNELS 3 Zrotation Yrotation Xrotation
										End Site
										{
											OFFSET -0.64582 -0.00000 -0.00000
										}
									}
								}
								JOINT RThumb
								{
									OFFSET 0 0 0
									CHANNELS 3 Zrotation Yrotation Xrotation
									End Site
									{
										OFFSET -0.65568 -0.00000 0.65568
									}
								}
							}
						}
					}
				}
			}
		}
	}
}
MOTION
Frames: 14
Frame Time: .0083333
-0.3113 17.7582 -2.7797 0 0 0 0 0 0 -21 0 0 0 0 0 0 0 0 0 0 0 0 0 0 21 0 0 0 0 0 0 0 0 0 0 0 0 0 0 0 0 0 0 0 0 0 0 -16 0 0 21 0 0 11 0 0 0 -8 0 0 0 0 0 0 0 0 0 0 0 0 0 0 0 0 0 0 0 0 8 0 0 0 0 0 0 0 0 0 0 0 0 0 0 0 0 0
-0.3113 17.7582 -2.7797 1.7136 0.7443 4.0011 0.0000 0.0000 0.0000 -19.3340 -6.9504 -17.9602 3.0154 10.7199 31.3411 0.9710 3.2089 -20.0343 0.6010 -4.9625 -13.8018 0.0000 0.0000 0.0000 15.6843 8.5007 -20.2715 -3.3119 -11.1837 32.9019 -0.6350 -7.2270 -19.3859 -0.3567 3.8368 -10.6179 0.0759 2.2664 9.9446 0.0204 3.0083 3.9720 -0.3511 1.4999 -1.4408 -6.9411 -5.5897 -1.6105 5.2485 -7.4848 4.8021 2.7075 -3.7422 2.3371 -0.0000 0.0000 0.0000 -66.2634 -55.6206 50.8890 46.4650 -51.4663 -23.3792 -0.0000 0.0000 -58.7394 4.5428 30.4571 2.3063 -7.1250 0.0000 -0.0000 -29.7037 57.9423 -9.9839 -0.0000 0.0000 0.0000 51.9803 51.9358 28.9733 -37.6221 46.5963 -16.6905 0.0000 -0.0000 -71.6428 -13.5736 12.3260 -2.9504 7.1250 -0.0000 -0.0000 9.4847 -17.4154 6.2985
-0.3133 17.7594 -2.7847 1.7833 0.7655 4.0289 0.0000 0.0000 0.0000 -19.3857 -6.8992 -18.0477 3.0123 10.7149 31.3244 0.9730 3.2019 -20.0495 0.6345 -5.0965 -14.1841 0.0000 0.0000 0.0000 15.6008 8.5276 -20.3638 -3.3255 -11.2041 32.9715 -0.6379 -7.1523 -19.3549 -0.3630 3.8702 -10.7119 -0.0133 2.2703 9.9472 0.0356 3.0057 3.9523 -0.2859 1.4977 -1.4681 -7.0170 -5.5673 -1.3893 5.3313 -7.4656 4.6357 2.7571 -3.7348 2.2482 -0.0000 0.0000 0.0000 -66.1838 -55.6470 50.8504 46.5889 -51.5236 -23.4762 -0.0000 0.0000 -58.8180 4.7732 30.5218 2.4283 -7.1250 0.0000 -0.0000 -29.5319 58.0479 -9.9960 -0.0000 0.0000 0.0000 51.9126 51.9486 28.9384 -37.5446 46.5459 -16.6342 0.0000 -0.0000 -71.4526 -13.3238 12.4192 -2.9157 7.1250 -0.0000 -0.0000 9.6559 -17.3377 6.4322
-0.3164 17.7575 -2.7916 1.8247 0.7886 4.0674 0.0000 0.0000 0.0000 -19.4046 -6.8955 -18.1730 3.0240 10.7337 31.3870 0.9728 3.1271 -20.0077 0.6244 -5.0567 -14.0704 0.0000 0.0000 0.0000 15.5519 8.5730 -20.4628 -3.3398 -11.2258 33.0452 -0.6357 -7.1576 -19.3364 -0.3585 3.8468 -10.6460 -0.0567 2.2953 9.9801 0.0211 3.0344 3.9184 -0.2823 1.5116 -1.5225 -6.9227 -5.5712 -1.2368 5.2989 -7.4787 4.5388 2.7330 -3.7420 2.1828 -0.0000 0.0000 0.0000 -66.1603 -55.6818 50.9122 46.6689 -51.5604 -23.5388 -0.0000 0.0000 -58.8500 4.8449 30.5049 2.4637 -7.1250 0.0000 -0.0000 -29.4470 58.0488 -9.9644 -0.0000 0.0000 0.0000 51.9134 51.9309 28.8183 -37.5995 46.5816 -16.6740 0.0000 -0.0000 -71.4883 -13.3973 12.1851 -2.8780 7.1250 -0.0000 -0.0000 9.6093 -17.5692 6.3508
-0.3182 17.7537 -2.7973 1.7674 0.8193 4.1150 0.0000 0.0000 0.0000 -19.3224 -6.8824 -18.2957 3.0321 10.7468 31.4305 0.9685 3.0840 -19.9453 0.6265 -5.0648 -14.0936 0.0000 0.0000 0.0000 15.6120 8.6305 -20.5746 -3.3582 -11.2535 33.1398 -0.6278 -7.2676 -19.3438 -0.3720 3.9175 -10.8448 0.0056 2.2455 10.0073 0.0839 2.9756 3.9380 -0.2465 1.4823 -1.5176 -7.0596 -5.5261 -1.3971 5.2720 -7.4039 4.5765 2.7474 -3.7057 2.2247 0.0000 -0.0000 0.0000 -66.0532 -55.7572 50.6111 46.6334 -51.5440 -23.5110 -0.0000 0.0000 -58.8780 4.8663 30.4274 2.4689 -7.1250 0.0000 -0.0000 -29.3610 57.9865 -9.8869 0.0000 -0.0000 0.0000 51.8117 52.1191 28.8600 -37.6983 46.6455 -16.7459 0.0000 -0.0000 -71.6390 -13.6248 12.0167 -2.8889 7.1250 -0.0000 -0.0000 9.4545 -17.7250 6.2127
-0.3182 17.7540 -2.8001 1.7646 0.8246 4.1198 0.0000 0.0000 0.0000 -19.3206 -6.8665 -18.3412 3.0387 10.7575 31.4664 0.9658 3.0545 -19.9048 0.6173 -5.0284 -13.9895 0.0000 0.0000 0.0000 15.6091 8.6234 -20.6249 -3.3818 -11.2889 33.2604 -0.6428 -7.1549 -19.4075 -0.3400 3.7470 -10.3660 -0.0525 2.1656 10.0192 0.1996 2.8668 3.9969 -0.0817 1.4270 -1.4723 -7.3532 -5.4556 -1.6381 5.2758 -7.2865 4.6488 2.8006 -3.6497 2.2994 0.0000 -0.0000 0.0000 -65.8692 -55.8149 50.0719 46.6626 -51.5575 -23.5339 -0.0000 0.0000 -58.9705 4.9674 30.3311 2.5132 -7.1250 0.0000 -0.0000 -29.1813 57.9249 -9.7751 0.0000 -0.0000 0.0000 51.6945 52.4036 29.0683 -37.6702 46.6274 -16.7255 0.0000 -0.0000 -71.5385 -13.5314 12.2058 -2.9127 7.1250 -0.0000 -0.0000 9.5159 -17.5398 6.2935
-0.3179 17.7557 -2.8030 1.7944 0.8125 4.1218 0.0000 0.0000 0.0000 -19.3616 -6.8598 -18.3869 3.0457 10.7686 31.5035 0.9561 3.0947 -19.8339 0.5984 -4.9521 -13.7719 0.0000 0.0000 0.0000 15.5728 8.6261 -20.6382 -3.4071 -11.3266 33.3894 -0.6742 -6.8654 -19.5002 -0.2735 3.3636 -9.2929 -0.1124 2.1541 10.0079 0.2365 2.8469 4.0032 -0.0073 1.4164 -1.4643 -7.4492 -5.4244 -1.5559 5.3136 -7.2480 4.6143 2.8349 -3.6324 2.2769 0.0000 0.0000 0.0000 -65.8325 -55.8205 49.9174 46.7182 -51.5830 -23.5775 -0.0000 0.0000 -59.0176 4.9831 30.3491 2.5225 -7.1250 0.0000 -0.0000 -29.1809 57.9439 -9.7886 0.0000 0.0000 0.0000 51.5481 52.5578 29.1534 -37.5840 46.5716 -16.6628 0.0000 -0.0000 -71.5967 -13.5070 12.4065 -2.9543 7.1250 -0.0000 -0.0000 9.5294 -17.3385 6.3453
-0.3178 17.7551 -2.8062 1.8601 0.8354 4.1319 0.0000 0.0000 0.0000 -19.4356 -6.8831 -18.4182 3.0502 10.7759 31.5277 0.9553 3.0560 -19.8057 0.5695 -4.8332 -13.4334 0.0000 0.0000 0.0000 15.4938 8.6171 -20.6878 -3.4319 -11.3634 33.5155 -0.6913 -6.7133 -19.5564 -0.2348 3.1185 -8.6088 -0.1775 2.1535 10.0265 0.2359 2.8401 3.9781 0.0278 1.4125 -1.5036 -7.4925 -5.3925 -1.4358 5.3912 -7.2163 4.6236 2.8736 -3.6175 2.2619 -0.0000 0.0000 0.0000 -65.8440 -55.7957 49.8843 46.7685 -51.6060 -23.6169 -0.0000 0.0000 -58.9999 4.8890 30.2699 2.4689 -7.1250 0.0000 -0.0000 -29.2076 57.8551 -9.7348 -0.0000 0.0000 0.0000 51.4740 52.6251 29.2154 -37.5714 46.5634 -16.6537 0.0000 -0.0000 -71.8588 -13.7159 12.5950 -3.0465 7.1250 -0.0000 -0.0000 9.3821 -17.1339 6.2871
-0.3185 17.7533 -2.8094 1.8619 0.8527 4.1590 0.0000 0.0000 0.0000 -19.4263 -6.8677 -18.4936 3.0560 10.7852 31.5588 0.9533 3.0344 -19.7757 0.5753 -4.8570 -13.5011 0.0000 0.0000 0.0000 15.4861 8.6271 -20.7905 -3.4555 -11.3982 33.6349 -0.6911 -6.7468 -19.5808 -0.2351 3.1205 -8.6145 -0.1743 2.1385 10.0364 0.2400 2.8206 3.9674 0.0317 1.4028 -1.5201 -7.4972 -5.3562 -1.3965 5.4241 -7.1721 4.6327 2.8883 -3.5955 2.2565 0.0000 0.0000 0.0000 -65.7366 -55.7856 49.7426 46.8380 -51.6378 -23.6714 -0.0000 0.0000 -58.9460 4.8700 30.1966 2.4539 -7.1250 0.0000 -0.0000 -29.1656 57.7876 -9.6706 0.0000 0.0000 0.0000 51.4666 52.6512 29.2641 -37.6407 46.6083 -16.7040 0.0000 -0.0000 -72.0259 -13.8010 12.7499 -3.1031 7.1250 -0.0000 -0.0000 9.3213 -16.9713 6.2788
-0.3190 17.7516 -2.8119 1.8601 0.8768 4.1559 0.0000 0.0000 0.0000 -19.4224 -6.8579 -18.5347 3.0645 10.7987 31.6039 0.9484 3.0433 -19.7337 0.5974 -4.9480 -13.7603 0.0000 0.0000 0.0000 15.4878 8.6157 -20.8474 -3.4724 -11.4231 33.7204 -0.6903 -6.7784 -19.5966 -0.2416 3.1629 -8.7325 -0.1184 2.1538 10.0538 0.2102 2.8453 3.9864 -0.0333 1.4157 -1.5057 -7.3301 -5.3512 -1.3257 5.3480 -7.1689 4.5400 2.8339 -3.5929 2.2004 0.0000 0.0000 0.0000 -65.7103 -55.8846 49.7484 46.9068 -51.6691 -23.7253 -0.0000 0.0000 -58.9239 4.9174 30.2338 2.4806 -7.1250 0.0000 -0.0000 -29.1499 57.8300 -9.6952 0.0000 0.0000 0.0000 51.4221 52.6659 29.1130 -37.6371 46.6060 -16.7014 0.0000 -0.0000 -71.9672 -13.8125 12.7282 -3.1006 7.1250 -0.0000 -0.0000 9.3136 -16.9924 6.2692
-0.3196 17.7484 -2.8148 1.9283 0.8598 4.1362 0.0000 0.0000 0.0000 -19.4963 -6.8408 -18.5552 3.0735 10.8131 31.6520 0.9495 3.0351 -19.7400 0.6012 -4.9635 -13.8046 0.0000 0.0000 0.0000 15.4075 8.6284 -20.8800 -3.4869 -11.4444 33.7938 -0.6980 -6.7171 -19.6282 -0.2351 3.1207 -8.6149 -0.0908 2.2168 10.1209 0.1355 2.9293 4.0198 -0.1369 1.4582 -1.5026 -7.1786 -5.3978 -1.3875 5.3297 -7.2307 4.5277 2.7960 -3.6204 2.2036 -0.0000 0.0000 0.0000 -65.7676 -56.1017 49.9386 46.9549 -51.6910 -23.7630 -0.0000 0.0000 -59.0186 5.0006 30.2848 2.5266 -7.1250 0.0000 -0.0000 -29.1103 57.8919 -9.7249 -0.0000 0.0000 0.0000 51.3365 52.5435 28.7930 -37.7268 46.6639 -16.7666 0.0000 -0.0000 -71.8949 -13.7589 12.7190 -3.0859 7.1250 -0.0000 -0.0000 9.3507 -17.0054 6.2921
-0.3199 17.7454 -2.8163 1.9263 0.8638 4.0919 0.0000 0.0000 0.0000 -19.4941 -6.8061 -18.5515 3.0808 10.8248 31.6912 0.9518 2.9777 -19.7317 0.5802 -4.8776 -13.5597 0.0000 0.0000 0.0000 15.4132 8.6296 -20.8675 -3.4999 -11.4634 33.8591 -0.7041 -6.6988 -19.6754 -0.2330 3.1066 -8.5758 -0.0321 2.2181 10.1869 0.1270 2.9361 4.0633 -0.1809 1.4621 -1.4902 -7.1827 -5.3948 -1.4888 5.3133 -7.2211 4.5965 2.7885 -3.6149 2.2436 -0.0000 0.0000 0.0000 -65.7515 -56.2222 49.8870 46.9807 -51.7027 -23.7832 -0.0000 0.0000 -58.9747 4.9496 30.4208 2.5108 -7.1250 0.0000 -0.0000 -29.2735 57.9986 -9.8627 -0.0000 0.0000 0.0000 51.3037 52.5358 28.6924 -37.8120 46.7188 -16.8286 0.0000 -0.0000 -71.7873 -13.7404 12.6531 -3.0659 7.1250 -0.0000 -0.0000 9.3644 -17.0734 6.2874
-0.3212 17.7423 -2.8177 1.9538 0.9044 4.0618 0.0000 0.0000 0.0000 -19.5215 -6.8326 -18.5367 3.0852 10.8317 31.7143 0.9473 3.0060 -19.7039 0.5686 -4.8294 -13.4228 0.0000 0.0000 0.0000 15.3853 8.5884 -20.8902 -3.5158 -11.4866 33.9393 -0.7042 -6.7162 -19.6900 -0.2454 3.1880 -8.8027 -0.0321 2.2304 10.2098 0.1208 2.9521 4.0913 -0.1893 1.4702 -1.4733 -7.2314 -5.4096 -1.5014 5.3708 -7.2435 4.6760 2.8154 -3.6259 2.2793 0.0000 -0.0000 0.0000 -65.8837 -56.3234 49.9691 47.0441 -51.7315 -23.8330 -0.0000 0.0000 -58.8705 5.0528 30.5571 2.5738 -7.1250 0.0000 -0.0000 -29.2862 58.1389 -9.9685 0.0000 -0.0000 0.0000 51.2076 52.5339 28.5358 -37.8336 46.7327 -16.8443 0.0000 -0.0000 -71.6385 -13.7046 12.5104 -3.0238 7.1250 -0.0000 -0.0000 9.3911 -17.2202 6.2753
-0.3237 17.7404 -2.8174 2.0197 0.9099 4.0450 0.0000 0.0000 0.0000 -19.5828 -6.8547 -18.5228 3.0894 10.8383 31.7366 0.9467 3.0068 -19.6986 0.5717 -4.8421 -13.4587 0.0000 0.0000 0.0000 15.3220 8.5920 -20.9101 -3.5311 -11.5088 34.0158 -0.7044 -6.7510 -19.7187 -0.2503 3.2192 -8.8897 -0.0415 2.2961 10.2096 0.0467 3.0365 4.1073 -0.2695 1.5128 -1.4529 -7.0917 -5.4755 -1.4448 5.3939 -7.3409 4.6712 2.7952 -3.6721 2.2685 0.0000 0.0000 0.0000 -66.0054 -56.4721 50.2579 47.0874 -51.7511 -23.8670 -0.0000 0.0000 -58.8876 5.1581 30.6239 2.6328 -7.1250 0.0000 -0.0000 -29.2388 58.2195 -10.0083 0.0000 0.0000 0.0000 51.1157 52.4232 28.2633 -37.8493 46.7428 -16.8558 0.0000 -0.0000 -71.6322 -13.6384 12.4868 -3.0031 7.1250 -0.0000 -0.0000 9.4373 -17.2485 6.3011
